<?xml version="1.0" encoding="UTF-8" standalone="no"?>
<svg
   viewBox="0 0 50 40"
   width="500"
   height="400"
   data-home="0,0,40"
   data-anchor="20,20"
   version="1.1"
   id="svg8"
   sodipodi:docname="kitchen.svg"
   inkscape:version="1.4.4 (dcaf3e7, 2026-05-05)"
   xmlns:inkscape="http://www.inkscape.org/namespaces/inkscape"
   xmlns:sodipodi="http://sodipodi.sourceforge.net/DTD/sodipodi-0.dtd"
   xmlns="http://www.w3.org/2000/svg"
   xmlns:svg="http://www.w3.org/2000/svg"
   xmlns:rdf="http://www.w3.org/1999/02/22-rdf-syntax-ns#"
   xmlns:cc="http://creativecommons.org/ns#"
   xmlns:dc="http://purl.org/dc/elements/1.1/">
  <defs
     id="defs8" />
  <sodipodi:namedview
     id="namedview8"
     pagecolor="#ffffff"
     bordercolor="#000000"
     borderopacity="0.25"
     inkscape:showpageshadow="2"
     inkscape:pageopacity="0.0"
     inkscape:pagecheckerboard="0"
     inkscape:deskcolor="#d1d1d1"
     inkscape:zoom="1.1479141"
     inkscape:cx="254.81001"
     inkscape:cy="204.71915"
     inkscape:window-width="1470"
     inkscape:window-height="835"
     inkscape:window-x="0"
     inkscape:window-y="33"
     inkscape:window-maximized="1"
     inkscape:current-layer="g6"
     showgrid="true">
    <inkscape:grid
       id="grid1"
       units="px"
       originx="0"
       originy="0"
       spacingx="13.3"
       spacingy="13.3"
       empcolor="#0099e5"
       empopacity="0.30196078"
       color="#0099e5"
       opacity="0.14901961"
       empspacing="5"
       enabled="true"
       visible="true" />
  </sodipodi:namedview>
  <title
     id="title1">kitchen</title>
  <desc
     id="desc1">Simple cabin style (home/farm). Classes: wall_l wall_r roof roof_dark door accent accent2 body trim.</desc>
  <g
     id="g1"
     transform="matrix(1.2127404,0,0,1.2127404,-5.9400386,-5.2147838)">
    <path
       id="rect9"
       style="fill:#1e1602;fill-opacity:0.689815;stroke-width:0.1257"
       d="M 25.627904,18.528602 40.529241,16.495207 36.647684,28.754296 23.507525,28.69272 Z"
       sodipodi:nodetypes="ccccc"
       fill="#1e1602"
       fill-opacity="0.689815" />
    <path
       id="rect9-7"
       style="fill:#1e1602;fill-opacity:0.689815;stroke-width:0.1257"
       d="m 15.864928,29.139449 5.76858,2.760821 -6.639007,3.2455 -5.8912772,-0.660637 z"
       sodipodi:nodetypes="ccccc"
       fill="#1e1602"
       fill-opacity="0.689815" />
    <path
       d="m 31.598892,19.616552 3.207906,-6.992094 1.840886,16.129838 -4.548792,4.662256 z"
       fill="#5a3020"
       id="path2"
       sodipodi:nodetypes="ccccc" />
    <path
       d="m 13.541961,16.756876 18.895911,3.088951 -0.33898,13.570725 -19.132454,-2.772015 z"
       fill="#7a5040"
       id="path3"
       style="stroke-width:1.17406"
       sodipodi:nodetypes="ccccc" />
    <path
       id="rect4"
       style="fill:#a07058;stroke-width:0.295972"
       d="m 13.720488,26.945593 h 1.274013 v 8.200177 c -0.685853,0.580403 -1.110524,0.580403 -1.274013,0 z"
       sodipodi:nodetypes="ccccc" />
    <g
       id="g4">
      <path
         id="rect4-5-5-1"
         style="fill:#765341;fill-opacity:1;stroke-width:0.26517"
         d="m 23.942442,36.669087 1.7028,-3.381924 6.002235,0.775518 -3.708149,3.062358 z"
         sodipodi:nodetypes="ccccc"
         fill="#765341"
         fill-opacity="1" />
      <path
         id="rect4-5"
         style="fill:#a07058;stroke-width:0.295972"
         d="m 23.781033,34.944582 1.229041,-1.888832 6.296105,0.599879 -2.03854,1.888832 z"
         sodipodi:nodetypes="ccccc"
         fill="#a07058" />
      <path
         id="rect4-5-5"
         style="fill:#a07058;stroke-width:0.295972"
         d="m 23.627636,36.113992 0.644403,-0.764528 4.632134,0.464962 -0.824291,0.8095 z"
         sodipodi:nodetypes="ccccc"
         fill="#a07058" />
    </g>
    <path
       id="rect4-8"
       style="fill:#a07058;stroke-width:0.295972"
       d="m 9.1032238,26.284956 h 1.2740132 v 8.200177 c -0.8309534,0.406282 -1.2556245,0.406282 -1.2740132,0 z"
       sodipodi:nodetypes="ccccc" />
    <path
       d="M 17.811086,9.6801043 34.806798,12.624458 32.437872,19.845827 13.541961,16.756876 Z"
       fill="#d68e83"
       id="path5"
       sodipodi:nodetypes="ccccc"
       style="fill:#d68e83;fill-opacity:1"
       fill-opacity="1" />
    <path
       d="M 9.3062774,18.678695 16.08676,27.703373 7.7990998,26.576115 Z"
       fill="#d89389"
       id="path5-8"
       sodipodi:nodetypes="cccc"
       style="fill:#d89389;fill-opacity:1"
       fill-opacity="1" />
    <path
       d="m 19.207525,26.445827 c 1.366667,-2.256073 2.733333,-2.256073 4.1,0 l 0.749531,5.80558 -4.847095,-0.702274 z"
       fill="#452905"
       id="path7"
       sodipodi:nodetypes="ccccc" />
    <g
       id="g2"
       transform="matrix(-0.89919361,0,0,1,74.90234,1.392873)">
      <g
         id="g6" />
    </g>
    <path
       id="chimney"
       style="fill:#8a5040"
       d="m 26.407526,7.7458272 c 1.723025,-0.6637611 2.723025,-0.6637611 3,0 0.163556,1.6679107 0.769799,3.1587468 0,5.1999998 -1.566687,1.320828 -2.58578,0.900769 -3,0 -0.478901,-2.482144 0.645122,-3.4852544 0,-5.1999998 z"
       sodipodi:nodetypes="ccccc" />
    <ellipse
       class="accent"
       cx="27.907526"
       cy="6.7458272"
       rx="2"
       ry="1.4"
       fill="#e87840"
       fill-opacity="0.85"
       id="smoke1"
       style="fill:#4a3725;fill-opacity:0.775" />
    <ellipse
       class="accent2"
       cx="28.774822"
       cy="5.6062932"
       rx="1.5"
       ry="1.1"
       fill="#f0c060"
       fill-opacity="0.7"
       id="smoke2"
       style="fill:#4a3725;fill-opacity:0.775" />
    <path
       id="rect8"
       style="fill:#dea66e;fill-opacity:1;stroke-width:0.1257"
       d="m 9.3062774,18.678695 4.2356836,-1.921819 5.196528,6.282172 -2.651729,4.664325 z"
       sodipodi:nodetypes="ccccc"
       fill="#dea66e"
       fill-opacity="1" />
  </g>
  <metadata
     id="metadata1">
    <rdf:RDF>
      <cc:Work
         rdf:about="">
        <dc:title>kitchen</dc:title>
      </cc:Work>
    </rdf:RDF>
  </metadata>
</svg>
