<?xml version="1.0" encoding="UTF-8" standalone="no"?>
<svg
   viewBox="0 -40 80 80"
   width="80"
   height="80"
   version="1.1"
   id="svg1"
   sodipodi:docname="cattail_3.svg"
   inkscape:version="1.4.4 (dcaf3e7, 2026-05-05)"
   xmlns:inkscape="http://www.inkscape.org/namespaces/inkscape"
   xmlns:sodipodi="http://sodipodi.sourceforge.net/DTD/sodipodi-0.dtd"
   xmlns="http://www.w3.org/2000/svg"
   xmlns:svg="http://www.w3.org/2000/svg"
   xmlns:rdf="http://www.w3.org/1999/02/22-rdf-syntax-ns#"
   xmlns:cc="http://creativecommons.org/ns#"
   xmlns:dc="http://purl.org/dc/elements/1.1/">
  <defs
     id="defs1" />
  <sodipodi:namedview
     id="namedview1"
     pagecolor="#ffffff"
     bordercolor="#000000"
     borderopacity="0.25"
     inkscape:showpageshadow="2"
     inkscape:pageopacity="0.0"
     inkscape:pagecheckerboard="0"
     inkscape:deskcolor="#d1d1d1"
     inkscape:zoom="1.3299004"
     inkscape:cx="158.65849"
     inkscape:cy="196.63126"
     inkscape:window-width="1083"
     inkscape:window-height="834"
     inkscape:window-x="387"
     inkscape:window-y="33"
     inkscape:window-maximized="0"
     inkscape:current-layer="g4" />
  <title
     id="title1">reed</title>
  <desc
     id="desc1">Keep class= on paths for game recolouring. Open in Inkscape, Affinity, Illustrator, or Figma to edit nodes.</desc>
  <g
     id="reed"
     inkscape:groupmode="layer"
     inkscape:label="reed">
    <g
       id="g4"
       transform="matrix(1,0,0,1.4897699,-6.1783397,-5.7331075)">
      <g
         id="g6"
         transform="matrix(0.76596828,0,0,0.66909116,21.933144,0.68358489)">
        <path
           id="rect1-0-3-3"
           style="fill:#78973e;fill-opacity:1;stroke-width:0.0727465"
           d="m 14.845935,2.2890491 c -1.117976,3.8549091 -2.162453,6.7266767 -2.240992,11.5881989 -0.238282,2.599562 -0.36943,5.071339 0.04648,6.770102 L 14.46174,20.4271 C 11.510225,14.381083 14.486605,8.3350652 14.845935,2.2890491 Z"
           sodipodi:nodetypes="ccccc" />
        <path
           id="rect1"
           style="fill:#a09a2e;fill-opacity:1;stroke-width:0.0716758"
           d="m 10.749842,2.5178615 c 1.085307,3.8549095 2.099265,6.7266773 2.175509,11.5881985 0.231319,2.599563 0.29956,4.869531 -0.104193,6.568295 l -1.698347,-0.01844 C 13.98808,14.609895 11.09867,8.5638781 10.749842,2.5178615 Z"
           sodipodi:nodetypes="ccccc" />
        <path
           id="rect1-85"
           style="fill:#a09a2e;fill-opacity:1;stroke-width:0.0699511"
           d="m 8.8754206,3.887883 c 2.0058034,3.08464 3.4339854,5.8816548 3.5102294,10.512032 0.231319,2.475964 0.0071,4.651695 -0.396609,6.26969 L 10.58311,20.63835 C 13.448379,14.879795 10.743068,8.6887251 8.8754206,3.887883 Z"
           sodipodi:nodetypes="ccccc" />
        <g
           id="g5">
          <path
             id="rect1-0"
             style="fill:#3c9456;fill-opacity:1;stroke-width:0.0633638"
             d="M 15.210285,5.690199 C 14.630108,5.606461 11.069543,16.182485 11.989041,20.669605 L 13.4975,20.561854 C 11.407144,17.323392 15.236977,6.737073 15.210285,5.690195 Z"
             sodipodi:nodetypes="ccccc" />
          <path
             id="rect1-0-3"
             style="fill:#688c29;fill-opacity:1;stroke-width:0.0756395"
             d="m 16.379584,7.8775756 c -1.855935,2.5104724 -3.514765,4.4733654 -3.645146,7.6393864 -0.395568,1.69294 -0.603715,4.051089 0.08672,5.157393 l 1.066768,-0.177443 c -2.468812,-3.992434 1.263718,-9.391138 2.491658,-12.6193364 z"
             sodipodi:nodetypes="ccccc" />
          <path
             id="rect1-0-3-32"
             style="fill:#688c29;fill-opacity:1;stroke-width:0.0724168"
             d="m 8.9740395,7.8271718 c 1.7011585,2.5104722 3.2216485,4.4733652 3.3411565,7.6393862 0.36258,1.69294 1.13882,4.101493 0.505962,5.207797 l -1.664233,-0.0095 C 13.419849,16.672376 10.099575,11.05537 8.9740395,7.8271718 Z"
             sodipodi:nodetypes="ccccc" />
        </g>
        <path
           id="rect5"
           style="fill:#623828;fill-opacity:1;stroke-width:0.102985"
           d="M 8.1942017,7.0846856 C 8.2261087,6.9396806 8.676765,6.1060628 9.0410632,6.9018006 L 9.5314851,8.1951834 C 9.6455592,8.4909961 9.0660625,8.836468 8.7500132,8.187868 Z"
           sodipodi:nodetypes="ccccc" />
        <path
           id="rect5-3"
           style="fill:#623828;fill-opacity:1;stroke-width:0.102985"
           d="M 7.9324861,2.7960213 C 7.9634714,2.5740627 8.4150494,1.8173985 8.7793477,2.6131363 l 0.490422,1.2933828 c 0.114074,0.2958127 -0.465423,0.6412846 -0.7814721,-0.00732 z"
           sodipodi:nodetypes="ccccc" />
        <path
           id="rect5-3-3"
           style="fill:#623828;fill-opacity:1;stroke-width:0.116973"
           d="M 9.8414451,1.4688648 C 9.8814192,1.2469062 10.013652,0.58302524 10.483632,1.378763 l 0.632694,1.2933828 c 0.147166,0.2958127 -0.337367,0.7310748 -0.745102,0.08247 z"
           sodipodi:nodetypes="ccccc" />
        <path
           id="rect5-3-3-3"
           style="fill:#623828;fill-opacity:1;stroke-width:0.10015"
           d="M 15.744796,4.62003 C 15.715496,4.3980714 15.618559,3.7341904 15.27404,4.529928 l -0.463797,1.2933828 c -0.107881,0.2958127 0.247307,0.7310748 0.546198,0.08247 z"
           sodipodi:nodetypes="ccccc" />
        <path
           id="rect5-3-3-7"
           style="fill:#623828;fill-opacity:1;stroke-width:0.150192"
           d="m 17.109358,7.3668264 c 0.204068,-0.214408 0.289777,-0.878289 -0.485044,-0.082551 l -0.66062,0.8025933 c -0.242622,0.2958127 -0.03999,0.6857712 0.632215,0.037166 z"
           sodipodi:nodetypes="ccccc" />
        <path
           id="rect5-3-3-7-3"
           style="fill:#623828;fill-opacity:1;stroke-width:0.150192"
           d="m 15.388138,1.8323298 c -0.0659,-0.2219586 0.09855,-0.92359268 -0.676271,-0.127855 l -0.188176,0.9762573 c 0.06109,0.2958127 0.252478,0.4214998 0.542225,0.1730772 z"
           sodipodi:nodetypes="ccccc" />
      </g>
      <g
         id="g6-0"
         transform="matrix(-0.71085257,0,0,0.66909116,50.72486,3.6587374)">
        <path
           id="rect1-0-3-3-4"
           style="fill:#78973e;fill-opacity:1;stroke-width:0.0727465"
           d="m 14.845935,2.2890491 c -1.117976,3.8549091 -2.162453,6.7266767 -2.240992,11.5881989 -0.238282,2.599562 -0.36943,5.071339 0.04648,6.770102 L 14.46174,20.4271 C 11.510225,14.381083 14.486605,8.3350652 14.845935,2.2890491 Z"
           sodipodi:nodetypes="ccccc" />
        <path
           id="rect1-2"
           style="fill:#a09a2e;fill-opacity:1;stroke-width:0.0716758"
           d="m 10.749842,2.5178615 c 1.085307,3.8549095 2.099265,6.7266773 2.175509,11.5881985 0.231319,2.599563 0.29956,4.869531 -0.104193,6.568295 l -1.698347,-0.01844 C 13.98808,14.609895 11.09867,8.5638781 10.749842,2.5178615 Z"
           sodipodi:nodetypes="ccccc" />
        <path
           id="rect1-85-3"
           style="fill:#a09a2e;fill-opacity:1;stroke-width:0.0699511"
           d="m 8.8754206,3.887883 c 2.0058034,3.08464 3.4339854,5.8816548 3.5102294,10.512032 0.231319,2.475964 0.0071,4.651695 -0.396609,6.26969 L 10.58311,20.63835 C 13.448379,14.879795 10.743068,8.6887251 8.8754206,3.887883 Z"
           sodipodi:nodetypes="ccccc" />
        <g
           id="g5-3">
          <path
             id="rect1-0-7"
             style="fill:#3c9456;fill-opacity:1;stroke-width:0.0633638"
             d="M 15.210285,5.690199 C 14.630108,5.606461 11.069543,16.182485 11.989041,20.669605 L 13.4975,20.561854 C 11.407144,17.323392 15.236977,6.737073 15.210285,5.690195 Z"
             sodipodi:nodetypes="ccccc" />
          <path
             id="rect1-0-3-0"
             style="fill:#688c29;fill-opacity:1;stroke-width:0.0756395"
             d="m 16.379584,7.8775756 c -1.855935,2.5104724 -3.514765,4.4733654 -3.645146,7.6393864 -0.395568,1.69294 -0.603715,4.051089 0.08672,5.157393 l 1.066768,-0.177443 c -2.468812,-3.992434 1.263718,-9.391138 2.491658,-12.6193364 z"
             sodipodi:nodetypes="ccccc" />
          <path
             id="rect1-0-3-32-0"
             style="fill:#688c29;fill-opacity:1;stroke-width:0.0724168"
             d="m 8.9740395,7.8271718 c 1.7011585,2.5104722 3.2216485,4.4733652 3.3411565,7.6393862 0.36258,1.69294 1.13882,4.101493 0.505962,5.207797 l -1.664233,-0.0095 C 13.419849,16.672376 10.099575,11.05537 8.9740395,7.8271718 Z"
             sodipodi:nodetypes="ccccc" />
        </g>
        <path
           id="rect5-1"
           style="fill:#623828;fill-opacity:1;stroke-width:0.102985"
           d="M 8.1942017,7.0846856 C 8.2261087,6.9396806 8.676765,6.1060628 9.0410632,6.9018006 L 9.5314851,8.1951834 C 9.6455592,8.4909961 9.0660625,8.836468 8.7500132,8.187868 Z"
           sodipodi:nodetypes="ccccc" />
        <path
           id="rect5-3-0"
           style="fill:#623828;fill-opacity:1;stroke-width:0.102985"
           d="M 7.9324861,2.7960213 C 7.9634714,2.5740627 8.4150494,1.8173985 8.7793477,2.6131363 l 0.490422,1.2933828 c 0.114074,0.2958127 -0.465423,0.6412846 -0.7814721,-0.00732 z"
           sodipodi:nodetypes="ccccc" />
        <path
           id="rect5-3-3-30"
           style="fill:#623828;fill-opacity:1;stroke-width:0.116973"
           d="M 9.8414451,1.4688648 C 9.8814192,1.2469062 10.013652,0.58302524 10.483632,1.378763 l 0.632694,1.2933828 c 0.147166,0.2958127 -0.337367,0.7310748 -0.745102,0.08247 z"
           sodipodi:nodetypes="ccccc" />
        <path
           id="rect5-3-3-3-0"
           style="fill:#623828;fill-opacity:1;stroke-width:0.10015"
           d="M 15.744796,4.62003 C 15.715496,4.3980714 15.618559,3.7341904 15.27404,4.529928 l -0.463797,1.2933828 c -0.107881,0.2958127 0.247307,0.7310748 0.546198,0.08247 z"
           sodipodi:nodetypes="ccccc" />
        <path
           id="rect5-3-3-7-38"
           style="fill:#623828;fill-opacity:1;stroke-width:0.150192"
           d="m 17.109358,7.3668264 c 0.204068,-0.214408 0.289777,-0.878289 -0.485044,-0.082551 l -0.66062,0.8025933 c -0.242622,0.2958127 -0.03999,0.6857712 0.632215,0.037166 z"
           sodipodi:nodetypes="ccccc" />
        <path
           id="rect5-3-3-7-3-3"
           style="fill:#623828;fill-opacity:1;stroke-width:0.150192"
           d="m 15.388138,1.8323298 c -0.0659,-0.2219586 0.09855,-0.92359268 -0.676271,-0.127855 l -0.188176,0.9762573 c 0.06109,0.2958127 0.252478,0.4214998 0.542225,0.1730772 z"
           sodipodi:nodetypes="ccccc" />
      </g>
      <g
         id="g6-0-6"
         transform="matrix(-0.90453399,0,0,0.77939411,30.197971,13.98411)">
        <path
           id="rect1-0-3-3-4-6"
           style="fill:#78973e;fill-opacity:1;stroke-width:0.0727465"
           d="m 14.845935,2.2890491 c -1.117976,3.8549091 -2.162453,6.7266767 -2.240992,11.5881989 -0.238282,2.599562 -0.36943,5.071339 0.04648,6.770102 L 14.46174,20.4271 C 11.510225,14.381083 14.486605,8.3350652 14.845935,2.2890491 Z"
           sodipodi:nodetypes="ccccc" />
        <path
           id="rect1-2-40"
           style="fill:#a09a2e;fill-opacity:1;stroke-width:0.0716758"
           d="m 10.749842,2.5178615 c 1.085307,3.8549095 2.099265,6.7266773 2.175509,11.5881985 0.231319,2.599563 0.29956,4.869531 -0.104193,6.568295 l -1.698347,-0.01844 C 13.98808,14.609895 11.09867,8.5638781 10.749842,2.5178615 Z"
           sodipodi:nodetypes="ccccc" />
        <path
           id="rect1-85-3-8"
           style="fill:#a09a2e;fill-opacity:1;stroke-width:0.0699511"
           d="m 8.8754206,3.887883 c 2.0058034,3.08464 3.4339854,5.8816548 3.5102294,10.512032 0.231319,2.475964 0.0071,4.651695 -0.396609,6.26969 L 10.58311,20.63835 C 13.448379,14.879795 10.743068,8.6887251 8.8754206,3.887883 Z"
           sodipodi:nodetypes="ccccc" />
        <g
           id="g5-3-20">
          <path
             id="rect1-0-7-6"
             style="fill:#3c9456;fill-opacity:1;stroke-width:0.0633638"
             d="M 15.210285,5.690199 C 14.630108,5.606461 11.069543,16.182485 11.989041,20.669605 L 13.4975,20.561854 C 11.407144,17.323392 15.236977,6.737073 15.210285,5.690195 Z"
             sodipodi:nodetypes="ccccc" />
          <path
             id="rect1-0-3-0-0"
             style="fill:#688c29;fill-opacity:1;stroke-width:0.0756395"
             d="m 16.379584,7.8775756 c -1.855935,2.5104724 -3.514765,4.4733654 -3.645146,7.6393864 -0.395568,1.69294 -0.603715,4.051089 0.08672,5.157393 l 1.066768,-0.177443 c -2.468812,-3.992434 1.263718,-9.391138 2.491658,-12.6193364 z"
             sodipodi:nodetypes="ccccc" />
          <path
             id="rect1-0-3-32-0-7"
             style="fill:#688c29;fill-opacity:1;stroke-width:0.0724168"
             d="m 8.9740395,7.8271718 c 1.7011585,2.5104722 3.2216485,4.4733652 3.3411565,7.6393862 0.36258,1.69294 1.13882,4.101493 0.505962,5.207797 l -1.664233,-0.0095 C 13.419849,16.672376 10.099575,11.05537 8.9740395,7.8271718 Z"
             sodipodi:nodetypes="ccccc" />
        </g>
        <path
           id="rect5-1-2"
           style="fill:#623828;fill-opacity:1;stroke-width:0.102985"
           d="M 8.1942017,7.0846856 C 8.2261087,6.9396806 8.676765,6.1060628 9.0410632,6.9018006 L 9.5314851,8.1951834 C 9.6455592,8.4909961 9.0660625,8.836468 8.7500132,8.187868 Z"
           sodipodi:nodetypes="ccccc" />
        <path
           id="rect5-3-0-9"
           style="fill:#623828;fill-opacity:1;stroke-width:0.102985"
           d="M 7.9324861,2.7960213 C 7.9634714,2.5740627 8.4150494,1.8173985 8.7793477,2.6131363 l 0.490422,1.2933828 c 0.114074,0.2958127 -0.465423,0.6412846 -0.7814721,-0.00732 z"
           sodipodi:nodetypes="ccccc" />
        <path
           id="rect5-3-3-30-8"
           style="fill:#623828;fill-opacity:1;stroke-width:0.116973"
           d="M 9.8414451,1.4688648 C 9.8814192,1.2469062 10.013652,0.58302524 10.483632,1.378763 l 0.632694,1.2933828 c 0.147166,0.2958127 -0.337367,0.7310748 -0.745102,0.08247 z"
           sodipodi:nodetypes="ccccc" />
        <path
           id="rect5-3-3-3-0-1"
           style="fill:#623828;fill-opacity:1;stroke-width:0.10015"
           d="M 15.744796,4.62003 C 15.715496,4.3980714 15.618559,3.7341904 15.27404,4.529928 l -0.463797,1.2933828 c -0.107881,0.2958127 0.247307,0.7310748 0.546198,0.08247 z"
           sodipodi:nodetypes="ccccc" />
        <path
           id="rect5-3-3-7-38-1"
           style="fill:#623828;fill-opacity:1;stroke-width:0.150192"
           d="m 17.109358,7.3668264 c 0.204068,-0.214408 0.289777,-0.878289 -0.485044,-0.082551 l -0.66062,0.8025933 c -0.242622,0.2958127 -0.03999,0.6857712 0.632215,0.037166 z"
           sodipodi:nodetypes="ccccc" />
        <path
           id="rect5-3-3-7-3-3-6"
           style="fill:#623828;fill-opacity:1;stroke-width:0.150192"
           d="m 15.388138,1.8323298 c -0.0659,-0.2219586 0.09855,-0.92359268 -0.676271,-0.127855 l -0.188176,0.9762573 c 0.06109,0.2958127 0.252478,0.4214998 0.542225,0.1730772 z"
           sodipodi:nodetypes="ccccc" />
      </g>
      <g
         id="g6-0-1"
         transform="matrix(-0.54945138,0,0,0.44592008,30.962671,6.4654765)">
        <path
           id="rect1-0-3-3-4-7"
           style="fill:#78973e;fill-opacity:1;stroke-width:0.0727465"
           d="m 14.845935,2.2890491 c -1.117976,3.8549091 -2.162453,6.7266767 -2.240992,11.5881989 -0.238282,2.599562 -0.36943,5.071339 0.04648,6.770102 L 14.46174,20.4271 C 11.510225,14.381083 14.486605,8.3350652 14.845935,2.2890491 Z"
           sodipodi:nodetypes="ccccc" />
        <path
           id="rect1-2-45"
           style="fill:#a09a2e;fill-opacity:1;stroke-width:0.0716758"
           d="m 10.749842,2.5178615 c 1.085307,3.8549095 2.099265,6.7266773 2.175509,11.5881985 0.231319,2.599563 0.29956,4.869531 -0.104193,6.568295 l -1.698347,-0.01844 C 13.98808,14.609895 11.09867,8.5638781 10.749842,2.5178615 Z"
           sodipodi:nodetypes="ccccc" />
        <path
           id="rect1-85-3-1"
           style="fill:#a09a2e;fill-opacity:1;stroke-width:0.0699511"
           d="m 8.8754206,3.887883 c 2.0058034,3.08464 3.4339854,5.8816548 3.5102294,10.512032 0.231319,2.475964 0.0071,4.651695 -0.396609,6.26969 L 10.58311,20.63835 C 13.448379,14.879795 10.743068,8.6887251 8.8754206,3.887883 Z"
           sodipodi:nodetypes="ccccc" />
        <g
           id="g5-3-7">
          <path
             id="rect1-0-7-8"
             style="fill:#3c9456;fill-opacity:1;stroke-width:0.0633638"
             d="M 15.210285,5.690199 C 14.630108,5.606461 11.069543,16.182485 11.989041,20.669605 L 13.4975,20.561854 C 11.407144,17.323392 15.236977,6.737073 15.210285,5.690195 Z"
             sodipodi:nodetypes="ccccc" />
          <path
             id="rect1-0-3-0-2"
             style="fill:#688c29;fill-opacity:1;stroke-width:0.0756395"
             d="m 16.379584,7.8775756 c -1.855935,2.5104724 -3.514765,4.4733654 -3.645146,7.6393864 -0.395568,1.69294 -0.603715,4.051089 0.08672,5.157393 l 1.066768,-0.177443 c -2.468812,-3.992434 1.263718,-9.391138 2.491658,-12.6193364 z"
             sodipodi:nodetypes="ccccc" />
          <path
             id="rect1-0-3-32-0-5"
             style="fill:#688c29;fill-opacity:1;stroke-width:0.0724168"
             d="m 8.9740395,7.8271718 c 1.7011585,2.5104722 3.2216485,4.4733652 3.3411565,7.6393862 0.36258,1.69294 1.13882,4.101493 0.505962,5.207797 l -1.664233,-0.0095 C 13.419849,16.672376 10.099575,11.05537 8.9740395,7.8271718 Z"
             sodipodi:nodetypes="ccccc" />
        </g>
        <path
           id="rect5-1-4"
           style="fill:#623828;fill-opacity:1;stroke-width:0.102985"
           d="M 8.1942017,7.0846856 C 8.2261087,6.9396806 8.676765,6.1060628 9.0410632,6.9018006 L 9.5314851,8.1951834 C 9.6455592,8.4909961 9.0660625,8.836468 8.7500132,8.187868 Z"
           sodipodi:nodetypes="ccccc" />
        <path
           id="rect5-3-0-5"
           style="fill:#623828;fill-opacity:1;stroke-width:0.102985"
           d="M 7.9324861,2.7960213 C 7.9634714,2.5740627 8.4150494,1.8173985 8.7793477,2.6131363 l 0.490422,1.2933828 c 0.114074,0.2958127 -0.465423,0.6412846 -0.7814721,-0.00732 z"
           sodipodi:nodetypes="ccccc" />
        <path
           id="rect5-3-3-30-3"
           style="fill:#623828;fill-opacity:1;stroke-width:0.116973"
           d="M 9.8414451,1.4688648 C 9.8814192,1.2469062 10.013652,0.58302524 10.483632,1.378763 l 0.632694,1.2933828 c 0.147166,0.2958127 -0.337367,0.7310748 -0.745102,0.08247 z"
           sodipodi:nodetypes="ccccc" />
        <path
           id="rect5-3-3-3-0-01"
           style="fill:#623828;fill-opacity:1;stroke-width:0.10015"
           d="M 15.744796,4.62003 C 15.715496,4.3980714 15.618559,3.7341904 15.27404,4.529928 l -0.463797,1.2933828 c -0.107881,0.2958127 0.247307,0.7310748 0.546198,0.08247 z"
           sodipodi:nodetypes="ccccc" />
        <path
           id="rect5-3-3-7-38-9"
           style="fill:#623828;fill-opacity:1;stroke-width:0.150192"
           d="m 17.109358,7.3668264 c 0.204068,-0.214408 0.289777,-0.878289 -0.485044,-0.082551 l -0.66062,0.8025933 c -0.242622,0.2958127 -0.03999,0.6857712 0.632215,0.037166 z"
           sodipodi:nodetypes="ccccc" />
        <path
           id="rect5-3-3-7-3-3-4"
           style="fill:#623828;fill-opacity:1;stroke-width:0.150192"
           d="m 15.388138,1.8323298 c -0.0659,-0.2219586 0.09855,-0.92359268 -0.676271,-0.127855 l -0.188176,0.9762573 c 0.06109,0.2958127 0.252478,0.4214998 0.542225,0.1730772 z"
           sodipodi:nodetypes="ccccc" />
      </g>
      <g
         id="g6-0-9"
         transform="matrix(-0.71085257,0,0,0.66909116,50.572384,15.369583)">
        <path
           id="rect1-0-3-3-4-2"
           style="fill:#78973e;fill-opacity:1;stroke-width:0.0727465"
           d="m 14.845935,2.2890491 c -1.117976,3.8549091 -2.162453,6.7266767 -2.240992,11.5881989 -0.238282,2.599562 -0.36943,5.071339 0.04648,6.770102 L 14.46174,20.4271 C 11.510225,14.381083 14.486605,8.3350652 14.845935,2.2890491 Z"
           sodipodi:nodetypes="ccccc" />
        <path
           id="rect1-2-4"
           style="fill:#a09a2e;fill-opacity:1;stroke-width:0.0716758"
           d="m 10.749842,2.5178615 c 1.085307,3.8549095 2.099265,6.7266773 2.175509,11.5881985 0.231319,2.599563 0.29956,4.869531 -0.104193,6.568295 l -1.698347,-0.01844 C 13.98808,14.609895 11.09867,8.5638781 10.749842,2.5178615 Z"
           sodipodi:nodetypes="ccccc" />
        <path
           id="rect1-85-3-9"
           style="fill:#a09a2e;fill-opacity:1;stroke-width:0.0699511"
           d="m 8.8754206,3.887883 c 2.0058034,3.08464 3.4339854,5.8816548 3.5102294,10.512032 0.231319,2.475964 0.0071,4.651695 -0.396609,6.26969 L 10.58311,20.63835 C 13.448379,14.879795 10.743068,8.6887251 8.8754206,3.887883 Z"
           sodipodi:nodetypes="ccccc" />
        <g
           id="g5-3-2">
          <path
             id="rect1-0-7-9"
             style="fill:#3c9456;fill-opacity:1;stroke-width:0.0633638"
             d="M 15.210285,5.690199 C 14.630108,5.606461 11.069543,16.182485 11.989041,20.669605 L 13.4975,20.561854 C 11.407144,17.323392 15.236977,6.737073 15.210285,5.690195 Z"
             sodipodi:nodetypes="ccccc" />
          <path
             id="rect1-0-3-0-1"
             style="fill:#688c29;fill-opacity:1;stroke-width:0.0756395"
             d="m 16.379584,7.8775756 c -1.855935,2.5104724 -3.514765,4.4733654 -3.645146,7.6393864 -0.395568,1.69294 -0.603715,4.051089 0.08672,5.157393 l 1.066768,-0.177443 c -2.468812,-3.992434 1.263718,-9.391138 2.491658,-12.6193364 z"
             sodipodi:nodetypes="ccccc" />
          <path
             id="rect1-0-3-32-0-0"
             style="fill:#688c29;fill-opacity:1;stroke-width:0.0724168"
             d="m 8.9740395,7.8271718 c 1.7011585,2.5104722 3.2216485,4.4733652 3.3411565,7.6393862 0.36258,1.69294 1.13882,4.101493 0.505962,5.207797 l -1.664233,-0.0095 C 13.419849,16.672376 10.099575,11.05537 8.9740395,7.8271718 Z"
             sodipodi:nodetypes="ccccc" />
        </g>
        <path
           id="rect5-1-9"
           style="fill:#623828;fill-opacity:1;stroke-width:0.102985"
           d="M 8.1942017,7.0846856 C 8.2261087,6.9396806 8.676765,6.1060628 9.0410632,6.9018006 L 9.5314851,8.1951834 C 9.6455592,8.4909961 9.0660625,8.836468 8.7500132,8.187868 Z"
           sodipodi:nodetypes="ccccc" />
        <path
           id="rect5-3-0-3"
           style="fill:#623828;fill-opacity:1;stroke-width:0.102985"
           d="M 7.9324861,2.7960213 C 7.9634714,2.5740627 8.4150494,1.8173985 8.7793477,2.6131363 l 0.490422,1.2933828 c 0.114074,0.2958127 -0.465423,0.6412846 -0.7814721,-0.00732 z"
           sodipodi:nodetypes="ccccc" />
        <path
           id="rect5-3-3-30-0"
           style="fill:#623828;fill-opacity:1;stroke-width:0.116973"
           d="M 9.8414451,1.4688648 C 9.8814192,1.2469062 10.013652,0.58302524 10.483632,1.378763 l 0.632694,1.2933828 c 0.147166,0.2958127 -0.337367,0.7310748 -0.745102,0.08247 z"
           sodipodi:nodetypes="ccccc" />
        <path
           id="rect5-3-3-3-0-0"
           style="fill:#623828;fill-opacity:1;stroke-width:0.10015"
           d="M 15.744796,4.62003 C 15.715496,4.3980714 15.618559,3.7341904 15.27404,4.529928 l -0.463797,1.2933828 c -0.107881,0.2958127 0.247307,0.7310748 0.546198,0.08247 z"
           sodipodi:nodetypes="ccccc" />
        <path
           id="rect5-3-3-7-38-3"
           style="fill:#623828;fill-opacity:1;stroke-width:0.150192"
           d="m 17.109358,7.3668264 c 0.204068,-0.214408 0.289777,-0.878289 -0.485044,-0.082551 l -0.66062,0.8025933 c -0.242622,0.2958127 -0.03999,0.6857712 0.632215,0.037166 z"
           sodipodi:nodetypes="ccccc" />
        <path
           id="rect5-3-3-7-3-3-0"
           style="fill:#623828;fill-opacity:1;stroke-width:0.150192"
           d="m 15.388138,1.8323298 c -0.0659,-0.2219586 0.09855,-0.92359268 -0.676271,-0.127855 l -0.188176,0.9762573 c 0.06109,0.2958127 0.252478,0.4214998 0.542225,0.1730772 z"
           sodipodi:nodetypes="ccccc" />
      </g>
      <g
         id="g6-0-9-7"
         transform="matrix(-0.71085257,0,0,0.66909116,21.566267,5.3295717)">
        <path
           id="rect1-0-3-3-4-2-1"
           style="fill:#78973e;fill-opacity:1;stroke-width:0.0727465"
           d="m 14.845935,2.2890491 c -1.117976,3.8549091 -2.162453,6.7266767 -2.240992,11.5881989 -0.238282,2.599562 -0.36943,5.071339 0.04648,6.770102 L 14.46174,20.4271 C 11.510225,14.381083 14.486605,8.3350652 14.845935,2.2890491 Z"
           sodipodi:nodetypes="ccccc" />
        <path
           id="rect1-2-4-0"
           style="fill:#a09a2e;fill-opacity:1;stroke-width:0.0716758"
           d="m 10.749842,2.5178615 c 1.085307,3.8549095 2.099265,6.7266773 2.175509,11.5881985 0.231319,2.599563 0.29956,4.869531 -0.104193,6.568295 l -1.698347,-0.01844 C 13.98808,14.609895 11.09867,8.5638781 10.749842,2.5178615 Z"
           sodipodi:nodetypes="ccccc" />
        <path
           id="rect1-85-3-9-6"
           style="fill:#a09a2e;fill-opacity:1;stroke-width:0.0699511"
           d="m 8.8754206,3.887883 c 2.0058034,3.08464 3.4339854,5.8816548 3.5102294,10.512032 0.231319,2.475964 0.0071,4.651695 -0.396609,6.26969 L 10.58311,20.63835 C 13.448379,14.879795 10.743068,8.6887251 8.8754206,3.887883 Z"
           sodipodi:nodetypes="ccccc" />
        <g
           id="g5-3-2-0">
          <path
             id="rect1-0-7-9-3"
             style="fill:#3c9456;fill-opacity:1;stroke-width:0.0633638"
             d="M 15.210285,5.690199 C 14.630108,5.606461 11.069543,16.182485 11.989041,20.669605 L 13.4975,20.561854 C 11.407144,17.323392 15.236977,6.737073 15.210285,5.690195 Z"
             sodipodi:nodetypes="ccccc" />
          <path
             id="rect1-0-3-0-1-3"
             style="fill:#688c29;fill-opacity:1;stroke-width:0.0756395"
             d="m 16.379584,7.8775756 c -1.855935,2.5104724 -3.514765,4.4733654 -3.645146,7.6393864 -0.395568,1.69294 -0.603715,4.051089 0.08672,5.157393 l 1.066768,-0.177443 c -2.468812,-3.992434 1.263718,-9.391138 2.491658,-12.6193364 z"
             sodipodi:nodetypes="ccccc" />
          <path
             id="rect1-0-3-32-0-0-5"
             style="fill:#688c29;fill-opacity:1;stroke-width:0.0724168"
             d="m 8.9740395,7.8271718 c 1.7011585,2.5104722 3.2216485,4.4733652 3.3411565,7.6393862 0.36258,1.69294 1.13882,4.101493 0.505962,5.207797 l -1.664233,-0.0095 C 13.419849,16.672376 10.099575,11.05537 8.9740395,7.8271718 Z"
             sodipodi:nodetypes="ccccc" />
        </g>
        <path
           id="rect5-1-9-0"
           style="fill:#623828;fill-opacity:1;stroke-width:0.102985"
           d="M 8.1942017,7.0846856 C 8.2261087,6.9396806 8.676765,6.1060628 9.0410632,6.9018006 L 9.5314851,8.1951834 C 9.6455592,8.4909961 9.0660625,8.836468 8.7500132,8.187868 Z"
           sodipodi:nodetypes="ccccc" />
        <path
           id="rect5-3-0-3-2"
           style="fill:#623828;fill-opacity:1;stroke-width:0.102985"
           d="M 7.9324861,2.7960213 C 7.9634714,2.5740627 8.4150494,1.8173985 8.7793477,2.6131363 l 0.490422,1.2933828 c 0.114074,0.2958127 -0.465423,0.6412846 -0.7814721,-0.00732 z"
           sodipodi:nodetypes="ccccc" />
        <path
           id="rect5-3-3-30-0-3"
           style="fill:#623828;fill-opacity:1;stroke-width:0.116973"
           d="M 9.8414451,1.4688648 C 9.8814192,1.2469062 10.013652,0.58302524 10.483632,1.378763 l 0.632694,1.2933828 c 0.147166,0.2958127 -0.337367,0.7310748 -0.745102,0.08247 z"
           sodipodi:nodetypes="ccccc" />
        <path
           id="rect5-3-3-3-0-0-2"
           style="fill:#623828;fill-opacity:1;stroke-width:0.10015"
           d="M 15.744796,4.62003 C 15.715496,4.3980714 15.618559,3.7341904 15.27404,4.529928 l -0.463797,1.2933828 c -0.107881,0.2958127 0.247307,0.7310748 0.546198,0.08247 z"
           sodipodi:nodetypes="ccccc" />
        <path
           id="rect5-3-3-7-38-3-7"
           style="fill:#623828;fill-opacity:1;stroke-width:0.150192"
           d="m 17.109358,7.3668264 c 0.204068,-0.214408 0.289777,-0.878289 -0.485044,-0.082551 l -0.66062,0.8025933 c -0.242622,0.2958127 -0.03999,0.6857712 0.632215,0.037166 z"
           sodipodi:nodetypes="ccccc" />
        <path
           id="rect5-3-3-7-3-3-0-1"
           style="fill:#623828;fill-opacity:1;stroke-width:0.150192"
           d="m 15.388138,1.8323298 c -0.0659,-0.2219586 0.09855,-0.92359268 -0.676271,-0.127855 l -0.188176,0.9762573 c 0.06109,0.2958127 0.252478,0.4214998 0.542225,0.1730772 z"
           sodipodi:nodetypes="ccccc" />
      </g>
    </g>
  </g>
  <metadata
     id="metadata1">
    <rdf:RDF>
      <cc:Work
         rdf:about="">
        <dc:title>reed</dc:title>
      </cc:Work>
    </rdf:RDF>
  </metadata>
</svg>
