<?xml version="1.0" encoding="UTF-8" standalone="no"?>
<svg
   viewBox="0 -40 80 80"
   width="80"
   height="80"
   version="1.1"
   id="svg2"
   sodipodi:docname="crop_plant_1.svg"
   inkscape:version="1.4.4 (dcaf3e7, 2026-05-05)"
   xmlns:inkscape="http://www.inkscape.org/namespaces/inkscape"
   xmlns:sodipodi="http://sodipodi.sourceforge.net/DTD/sodipodi-0.dtd"
   xmlns="http://www.w3.org/2000/svg"
   xmlns:svg="http://www.w3.org/2000/svg">
  <defs
     id="defs2" />
  <sodipodi:namedview
     id="namedview2"
     pagecolor="#ffffff"
     bordercolor="#000000"
     borderopacity="0.25"
     inkscape:showpageshadow="2"
     inkscape:pageopacity="0.0"
     inkscape:pagecheckerboard="0"
     inkscape:deskcolor="#d1d1d1"
     inkscape:zoom="8.0631664"
     inkscape:cx="22.695799"
     inkscape:cy="48.802168"
     inkscape:window-width="1470"
     inkscape:window-height="834"
     inkscape:window-x="0"
     inkscape:window-y="33"
     inkscape:window-maximized="1"
     inkscape:current-layer="svg2" />
  <title
     id="title1">crop plant</title>
  <desc
     id="desc1">Keep class= on paths for game recolouring. Open in Inkscape, Affinity, Illustrator, or Figma to edit nodes.</desc>
  <path
     id="path2-3"
     style="fill:#3f2f0c;fill-opacity:0.358796;stroke-width:1.82532"
     d="m 35.046571,26.490823 c 0,2.711812 -2.09904,7.276421 -7.545819,7.276421 -5.44678,0 -7.54582,-0.742203 -7.54582,-3.454013 0,-2.711812 7.622877,-11.644887 13.069657,-11.644887 5.446779,0 2.021982,5.110667 2.021982,7.822479 z"
     sodipodi:nodetypes="sssss"
     inkscape:label="path2-3" />
  <path
     id="path2-3-8"
     style="fill:#3f2f0c;fill-opacity:0.358796;stroke-width:1.82532"
     d="m 19.525148,10.673085 c 0,2.711812 -2.099041,7.27642 -7.54582,7.27642 -5.4467815,0 -7.5458199,-0.742202 -7.5458199,-3.454012 0,-2.711812 7.6228779,-11.6448872 13.0696569,-11.6448872 5.446779,0 2.021983,5.1106674 2.021983,7.8224792 z"
     sodipodi:nodetypes="sssss"
     inkscape:label="path2-3" />
  <path
     id="path2-3-8-5"
     style="fill:#3f2f0c;fill-opacity:0.358796;stroke-width:1.62282"
     d="m 45.388076,9.3048184 c 0,2.7118116 -1.65913,7.2764196 -5.964389,7.2764196 -4.305262,0 -5.964391,-0.742202 -5.964391,-3.454012 0,-2.711811 6.025299,-11.6448867 10.330559,-11.6448867 4.305259,0 1.598221,5.1106674 1.598221,7.8224791 z"
     sodipodi:nodetypes="sssss"
     inkscape:label="path2-3" />
  <path
     stroke="#5aae50"
     stroke-linejoin="round"
     stroke-linecap="round"
     stroke-width="2.90425"
     fill="none"
     d="M 24.353092,9.7031385 V 29.133543"
     class="stem"
     id="svg_3" />
  <path
     stroke="#5aae50"
     stroke-linejoin="round"
     stroke-linecap="round"
     stroke-width="2.90425"
     fill="none"
     d="M 28.505304,9.4701248 25.61625,28.675104"
     class="stem"
     id="svg_5" />
  <path
     stroke="#5aae50"
     stroke-linejoin="round"
     stroke-linecap="round"
     stroke-width="2.90425"
     fill="none"
     d="M 7.9378007,-7.7565606 V 11.673844"
     class="stem"
     id="svg_7" />
  <path
     stroke="#5aae50"
     stroke-linejoin="round"
     stroke-linecap="round"
     stroke-width="2.90425"
     fill="none"
     d="M 12.936165,-7.2981049 10.047111,11.906874"
     class="stem"
     id="svg_8" />
  <path
     stroke="#5aae50"
     stroke-linejoin="round"
     stroke-linecap="round"
     stroke-width="2.90425"
     fill="none"
     d="M 2.3352203,-8.3928015 6.4327302,10.581426"
     class="stem"
     id="svg_9" />
  <path
     stroke="#5aae50"
     stroke-linejoin="round"
     stroke-linecap="round"
     stroke-width="2.90425"
     fill="none"
     d="M 32.463615,-5.7372699 36.963068,13.141703"
     class="stem"
     id="svg_10" />
  <path
     stroke="#5aae50"
     stroke-linejoin="round"
     stroke-linecap="round"
     stroke-width="2.90425"
     fill="none"
     d="M 38.865564,-6.2459792 35.976511,12.958999"
     class="stem"
     id="svg_11" />
  <path
     fill="#466ec8"
     d="m 2.6916805,13.169984 c 0,-2.146222 1.703238,-3.8860806 3.8042866,-3.8860806 2.1010486,0 3.8042869,1.7398586 3.8042869,3.8860806 0,2.146223 -1.7032383,3.886081 -3.8042869,3.886081 -2.1010486,0 -3.8042866,-1.739858 -3.8042866,-3.886081 z"
     class="flower"
     id="svg_12"
     style="stroke-width:1.45213" />
  <path
     fill="#466ec8"
     d="m 20.122345,30.283948 c 0,-2.146222 1.703238,-3.886081 3.804287,-3.886081 2.101049,0 3.804287,1.739859 3.804287,3.886081 0,2.146223 -1.703238,3.886081 -3.804287,3.886081 -2.101049,0 -3.804287,-1.739858 -3.804287,-3.886081 z"
     class="flower"
     id="svg_13"
     style="stroke-width:1.45213" />
  <path
     fill="#466ec8"
     d="m 32.682611,12.666285 c 0,-2.146222 1.703238,-3.8860796 3.804286,-3.8860796 2.101049,0 3.804287,1.7398576 3.804287,3.8860796 0,2.146223 -1.703238,3.886081 -3.804287,3.886081 -2.101048,0 -3.804286,-1.739858 -3.804286,-3.886081 z"
     class="flower"
     id="svg_14"
     style="stroke-width:1.45213" />
  <path
     fill="#466ec8"
     d="m 7.2608847,15.590144 c 0,-2.146237 1.703238,-3.886095 3.8042863,-3.886095 2.101049,0 3.804287,1.739858 3.804287,3.886095 0,2.146223 -1.703238,3.886081 -3.804287,3.886081 -2.1010483,0 -3.8042863,-1.739858 -3.8042863,-3.886081 z"
     class="flower"
     id="svg_15"
     style="stroke-width:1.45213" />
  <g
     id="g3" />
</svg>
