<?xml version="1.0" encoding="UTF-8" standalone="no"?>
<svg
   viewBox="0 0 40 40"
   width="400"
   height="400"
   version="1.1"
   id="svg1"
   sodipodi:docname="walk_speed.svg"
   inkscape:version="1.4.4 (dcaf3e7, 2026-05-05)"
   xmlns:inkscape="http://www.inkscape.org/namespaces/inkscape"
   xmlns:sodipodi="http://sodipodi.sourceforge.net/DTD/sodipodi-0.dtd"
   xmlns="http://www.w3.org/2000/svg"
   xmlns:svg="http://www.w3.org/2000/svg"
   xmlns:rdf="http://www.w3.org/1999/02/22-rdf-syntax-ns#"
   xmlns:cc="http://creativecommons.org/ns#"
   xmlns:dc="http://purl.org/dc/elements/1.1/">
  <defs
     id="defs1" />
  <sodipodi:namedview
     id="namedview1"
     pagecolor="#ffffff"
     bordercolor="#000000"
     borderopacity="0.25"
     inkscape:showpageshadow="2"
     inkscape:pageopacity="0.0"
     inkscape:pagecheckerboard="0"
     inkscape:deskcolor="#d1d1d1"
     inkscape:zoom="1.1592683"
     inkscape:cx="265.25352"
     inkscape:cy="229.02377"
     inkscape:window-width="1470"
     inkscape:window-height="834"
     inkscape:window-x="1"
     inkscape:window-y="34"
     inkscape:window-maximized="0"
     inkscape:current-layer="svg1" />
  <title
     id="title1">villager</title>
  <desc
     id="desc1">Keep class= on paths for game recolouring. Open in Inkscape, Affinity, Illustrator, or Figma to edit nodes.</desc>
  <path
     id="path4"
     class="skin"
     style="fill:#dc8c32;stroke-width:0.0782369"
     inkscape:transform-center-x="-0.30814748"
     inkscape:transform-center-y="-0.028997177"
     d="m 18.537731,26.816885 c -0.455012,-0.158466 -0.911803,-0.339786 -1.491056,-2.094376 l -1.813526,-0.824173 c -0.396715,1.529208 -1.250132,2.471686 -2.279461,3.188168 -0.07026,-1.898864 -0.437664,-3.865896 0.447563,-5.545558 l 4.622969,-0.228015 c 0.690557,1.834651 0.839766,3.669303 0.513511,5.503954 z"
     sodipodi:nodetypes="ccccccc" />
  <g
     id="villager"
     inkscape:groupmode="layer"
     inkscape:label="villager" />
  <g
     id="g4"
     transform="matrix(0.81672012,0,0,0.74946199,-1.1489858,3.1011733)">
    <path
       id="path3"
       class="skin"
       style="fill:#dc8c32;fill-opacity:1;stroke-width:0.1"
       inkscape:transform-center-x="-0.85508451"
       inkscape:transform-center-y="0.081572011"
       transform="translate(2.5077395,2.9036983)"
       d="m 17.158217,9.8989723 7.481416,4.4384187 c -3.308953,3.751011 -3.199399,5.792769 -3.071205,7.825207 l -6.398802,-0.456407 -2.766983,-6.396008 c 2.566588,-1.803737 3.533853,-3.607474 4.755574,-5.4112107 z"
       sodipodi:nodetypes="cccccc" />
    <path
       d="m 20.264063,6.9875 c -2.156952,0 -3.905665,1.5121648 -3.905665,3.377539 0,1.865374 1.748714,3.377539 3.905665,3.377539 2.156949,0 3.905468,-1.512165 3.905468,-3.377539 0,-1.8653742 -1.748518,-3.377539 -3.905468,-3.377539 z"
       class="skin"
       style="fill:#dc8c32;stroke:none;stroke-width:0.72639;stroke-linecap:round;stroke-linejoin:round;stroke-opacity:1"
       id="path2" />
    <path
       id="path3-1"
       class="hat"
       style="fill:#000080;fill-opacity:1;stroke:none"
       inkscape:transform-center-x="-0.84131101"
       inkscape:transform-center-y="0.060889911"
       d="M 22.675822,7.731675 C 20.451337,7.3022672 18.816436,7.7081027 17.241781,8.1992879 l 0.694309,-1.582397 c 2.544424,-1.8348693 1.718678,-1.9488813 2.835794,-2.1578344 0,0 1.433139,1.6828107 1.742665,2.3224965 z"
       sodipodi:nodetypes="ccccc">
      <title
         id="title6">Hat</title>
    </path>
    <path
       id="path3-1-8"
       class="shirt"
       style="fill:#000080;fill-opacity:1;stroke:none"
       inkscape:transform-center-x="-0.84131101"
       inkscape:transform-center-y="0.060889911"
       d="M 24.324148,25.364085 C 22.099663,24.934677 19.005645,24.289952 17.43099,24.781135 L 17.045553,16.10743 c 0.229856,-0.588639 1.15897,-2.440963 1.586108,-2.128277 0.421587,0.308621 0.78824,0.276195 1.390334,0.296782 0.728475,0.02491 1.402175,-0.03401 1.639474,-0.588981 0,0 3.271626,1.449353 3.581152,2.089039 z"
       sodipodi:nodetypes="cccsscc">
      <title
         id="title5">Shirt</title>
    </path>
    <g
       id="g5" />
  </g>
  <path
     id="hat_overlay"
     style="fill:#000080;stroke:none"
     class="hat"
     d="m 11.428504,9.5465468 h 7.513825 l -1.63344,-1.7987092 h -4.246945 z"
     sodipodi:nodetypes="ccccc" />
  <polygon
     id="hat_brim_overlay"
     class="hat"
     points="23,9.8 17,9.8 15.4,8.6 24.6,8.6 "
     style="fill:#000080;fill-opacity:1;stroke:none"
     transform="matrix(0.81672012,0,0,0.74946199,-1.1489858,3.1011733)" />
  <path
     id="rect1"
     style="fill:#e02800;fill-opacity:1;stroke-width:0.1257"
     d="m 11.300232,27.172314 c 5.923277,3.335437 11.846553,1.610211 17.769829,-1.725226 v 1.638965 C 23.146785,29.7314 17.223509,31.801671 11.300232,29.156324 Z"
     sodipodi:nodetypes="ccccc" />
  <path
     id="rect1-7"
     style="fill:#e02800;fill-opacity:1;stroke-width:0.1257"
     d="m 11.433558,30.085587 c 5.923277,3.335437 10.121327,2.041518 16.044603,-1.293919 v 1.638965 c -5.923276,2.645347 -9.344974,3.680482 -15.268251,1.035135 z"
     sodipodi:nodetypes="ccccc" />
  <metadata
     id="metadata1">
    <rdf:RDF>
      <cc:Work
         rdf:about="">
        <dc:title>villager</dc:title>
      </cc:Work>
    </rdf:RDF>
  </metadata>
</svg>
