<?xml version="1.0" encoding="UTF-8" standalone="no"?>
<svg
   viewBox="0 0 40 40"
   width="400"
   height="400"
   version="1.1"
   id="svg1"
   sodipodi:docname="hoe.svg"
   inkscape:version="1.4.4 (dcaf3e7, 2026-05-05)"
   xmlns:inkscape="http://www.inkscape.org/namespaces/inkscape"
   xmlns:sodipodi="http://sodipodi.sourceforge.net/DTD/sodipodi-0.dtd"
   xmlns="http://www.w3.org/2000/svg"
   xmlns:svg="http://www.w3.org/2000/svg">
  <defs
     id="defs1">
    <inkscape:path-effect
       effect="powerstroke"
       message=""
       id="path-effect20"
       is_visible="true"
       lpeversion="1.3"
       scale_width="1"
       interpolator_type="CentripetalCatmullRom"
       interpolator_beta="0.75"
       start_linecap_type="round"
       end_linecap_type="round"
       offset_points="34.6514,0.29688073"
       linejoin_type="spiro"
       miter_limit="4"
       not_jump="true"
       sort_points="true" />
    <inkscape:path-effect
       effect="simplify"
       id="path-effect19"
       is_visible="true"
       lpeversion="1.3"
       threshold="0.012"
       steps="1"
       smooth_angles="0"
       helper_size="0"
       simplify_individual_paths="false"
       simplify_just_coalesce="false"
       step="1" />
    <inkscape:path-effect
       effect="powerstroke"
       message=""
       id="path-effect18"
       is_visible="true"
       lpeversion="1.3"
       scale_width="1"
       interpolator_type="CentripetalCatmullRom"
       interpolator_beta="0.75"
       start_linecap_type="round"
       end_linecap_type="round"
       offset_points="134.29749,0.2496962"
       linejoin_type="spiro"
       miter_limit="4"
       not_jump="true"
       sort_points="true" />
    <inkscape:path-effect
       effect="simplify"
       id="path-effect17"
       is_visible="true"
       lpeversion="1.3"
       threshold="0.012"
       steps="1"
       smooth_angles="0"
       helper_size="0"
       simplify_individual_paths="false"
       simplify_just_coalesce="false"
       step="1" />
    <inkscape:path-effect
       effect="powerstroke"
       message=""
       id="path-effect16"
       is_visible="true"
       lpeversion="1.3"
       scale_width="1"
       interpolator_type="CentripetalCatmullRom"
       interpolator_beta="0.75"
       start_linecap_type="round"
       end_linecap_type="round"
       offset_points="114.01295,0.2496962"
       linejoin_type="spiro"
       miter_limit="4"
       not_jump="true"
       sort_points="true" />
    <inkscape:path-effect
       effect="simplify"
       id="path-effect15"
       is_visible="true"
       lpeversion="1.3"
       threshold="0.012"
       steps="1"
       smooth_angles="0"
       helper_size="0"
       simplify_individual_paths="false"
       simplify_just_coalesce="false"
       step="1" />
    <inkscape:path-effect
       effect="powerstroke"
       message=""
       id="path-effect14"
       is_visible="true"
       lpeversion="1.3"
       scale_width="1"
       interpolator_type="CentripetalCatmullRom"
       interpolator_beta="0.75"
       start_linecap_type="round"
       end_linecap_type="round"
       offset_points="190.30696,0.2496962"
       linejoin_type="spiro"
       miter_limit="4"
       not_jump="true"
       sort_points="true" />
    <inkscape:path-effect
       effect="simplify"
       id="path-effect13"
       is_visible="true"
       lpeversion="1.3"
       threshold="0.012"
       steps="1"
       smooth_angles="0"
       helper_size="0"
       simplify_individual_paths="false"
       simplify_just_coalesce="false"
       step="1" />
    <inkscape:path-effect
       effect="powerstroke"
       message=""
       id="path-effect12"
       is_visible="true"
       lpeversion="1.3"
       scale_width="1"
       interpolator_type="CentripetalCatmullRom"
       interpolator_beta="0.75"
       start_linecap_type="round"
       end_linecap_type="round"
       offset_points="179.16471,0.2496962"
       linejoin_type="spiro"
       miter_limit="4"
       not_jump="true"
       sort_points="true" />
    <inkscape:path-effect
       effect="simplify"
       id="path-effect11"
       is_visible="true"
       lpeversion="1.3"
       threshold="0.012"
       steps="1"
       smooth_angles="0"
       helper_size="0"
       simplify_individual_paths="false"
       simplify_just_coalesce="false"
       step="1" />
    <inkscape:path-effect
       effect="powerstroke"
       message=""
       id="path-effect10"
       is_visible="true"
       lpeversion="1.3"
       scale_width="1"
       interpolator_type="CentripetalCatmullRom"
       interpolator_beta="0.75"
       start_linecap_type="round"
       end_linecap_type="round"
       offset_points="178.35842,0.51550655"
       linejoin_type="spiro"
       miter_limit="4"
       not_jump="true"
       sort_points="true" />
    <inkscape:path-effect
       effect="simplify"
       id="path-effect9"
       is_visible="true"
       lpeversion="1.3"
       threshold="0.012"
       steps="1"
       smooth_angles="0"
       helper_size="0"
       simplify_individual_paths="false"
       simplify_just_coalesce="false"
       step="1" />
    <inkscape:path-effect
       effect="powerstroke"
       message=""
       id="path-effect8"
       is_visible="true"
       lpeversion="1.3"
       scale_width="1"
       interpolator_type="CentripetalCatmullRom"
       interpolator_beta="0.75"
       start_linecap_type="round"
       end_linecap_type="round"
       offset_points="92.77406,0.19298773"
       linejoin_type="spiro"
       miter_limit="4"
       not_jump="true"
       sort_points="true" />
    <inkscape:path-effect
       effect="simplify"
       id="path-effect7"
       is_visible="true"
       lpeversion="1.3"
       threshold="0.012"
       steps="1"
       smooth_angles="0"
       helper_size="0"
       simplify_individual_paths="false"
       simplify_just_coalesce="false"
       step="1" />
    <inkscape:path-effect
       effect="powerstroke"
       message=""
       id="path-effect6"
       is_visible="true"
       lpeversion="1.3"
       scale_width="1"
       interpolator_type="CentripetalCatmullRom"
       interpolator_beta="0.75"
       start_linecap_type="round"
       end_linecap_type="round"
       offset_points="101.04992,0.55605406"
       linejoin_type="spiro"
       miter_limit="4"
       not_jump="true"
       sort_points="true" />
    <inkscape:path-effect
       effect="simplify"
       id="path-effect5"
       is_visible="true"
       lpeversion="1.3"
       threshold="0.012"
       steps="1"
       smooth_angles="0"
       helper_size="0"
       simplify_individual_paths="false"
       simplify_just_coalesce="false"
       step="1" />
    <inkscape:path-effect
       effect="powerstroke"
       message=""
       id="path-effect4"
       is_visible="true"
       lpeversion="1.3"
       scale_width="1"
       interpolator_type="CentripetalCatmullRom"
       interpolator_beta="0.75"
       start_linecap_type="round"
       end_linecap_type="round"
       offset_points="439.37332,0.55605406"
       linejoin_type="spiro"
       miter_limit="4"
       not_jump="true"
       sort_points="true" />
    <inkscape:path-effect
       effect="simplify"
       id="path-effect3"
       is_visible="true"
       lpeversion="1.3"
       threshold="0.012"
       steps="1"
       smooth_angles="0"
       helper_size="0"
       simplify_individual_paths="false"
       simplify_just_coalesce="false"
       step="1" />
    <inkscape:path-effect
       effect="powerstroke"
       message=""
       id="path-effect2"
       is_visible="true"
       lpeversion="1.3"
       scale_width="1"
       interpolator_type="CentripetalCatmullRom"
       interpolator_beta="0.75"
       start_linecap_type="round"
       end_linecap_type="round"
       offset_points="369.16538,0.55605406"
       linejoin_type="spiro"
       miter_limit="4"
       not_jump="true"
       sort_points="true" />
    <inkscape:path-effect
       effect="simplify"
       id="path-effect1"
       is_visible="true"
       lpeversion="1.3"
       threshold="0.012"
       steps="1"
       smooth_angles="0"
       helper_size="0"
       simplify_individual_paths="false"
       simplify_just_coalesce="false"
       step="1" />
  </defs>
  <sodipodi:namedview
     id="namedview1"
     pagecolor="#ffffff"
     bordercolor="#000000"
     borderopacity="0.25"
     inkscape:showpageshadow="2"
     inkscape:pageopacity="0.0"
     inkscape:pagecheckerboard="0"
     inkscape:deskcolor="#d1d1d1"
     inkscape:zoom="0.94677535"
     inkscape:cx="99.812485"
     inkscape:cy="184.30983"
     inkscape:window-width="1470"
     inkscape:window-height="836"
     inkscape:window-x="0"
     inkscape:window-y="33"
     inkscape:window-maximized="1"
     inkscape:current-layer="rock" />
  <title
     id="title1">rock</title>
  <desc
     id="desc1">Keep class= on paths for game recolouring. Open in Inkscape, Affinity, Illustrator, or Figma to edit nodes.</desc>
  <g
     id="rock"
     inkscape:groupmode="layer"
     inkscape:label="rock">
    <path
       id="body"
       class="body"
       d="m 8.9420813,35.040505 c -1.9532088,-0.823322 -0.1734992,-2.061348 2.2575937,-6.14335 1.850634,1.053646 1.369562,2.58836 9.315052,2.417806 1.585468,0.146452 -3.964022,4.197114 -3.667808,5.773224 -4.33123,1.876046 -3.004542,-2.409232 -7.9048377,-2.04768 z"
       fill="#82828c"
       stroke="none"
       sodipodi:nodetypes="ccccc"
       style="stroke-width:0.76387" />
    <path
       id="path1"
       style="fill:#d28269;fill-opacity:1;stroke-width:0.262186"
       inkscape:transform-center-x="2.141182"
       inkscape:transform-center-y="-0.48210153"
       d="M 10.621641,33.600563 6.5989007,32.879258 17.570035,21.16523 c 3.63189,-2.72991 4.781627,-6.371229 4.781627,-6.371229 6.340016,-3.246572 8.981011,-11.274589 8.981011,-11.274589 0,0 3.042414,0.782572 3.367542,3.3798263 0,0 -2.098732,2.1806137 -5.350025,6.3199877 -6.356979,2.06415 -15.950651,16.785524 -18.728549,20.381337 z"
       sodipodi:nodetypes="cccccccc" />
    <path
       d="m 32.423819,10.279014 c -0.01563,-0.0034 -0.0336,-0.0068 -0.05337,-0.0094 -0.0078,-0.001 -0.01617,-0.002 -0.02512,-0.0028 -0.0064,-5.72e-4 -0.01326,-0.0011 -0.02047,-0.0014 -0.0049,-2.61e-4 -0.01014,-4.68e-4 -0.01556,-6e-4 -0.005,-1.23e-4 -0.01027,-1.82e-4 -0.01572,-1.57e-4 -0.0051,2.3e-5 -0.01039,1.2e-4 -0.01586,3.08e-4 -0.0052,1.77e-4 -0.01049,4.36e-4 -0.01599,7.93e-4 -0.0052,3.38e-4 -0.01057,7.65e-4 -0.01608,0.0013 -0.03193,0.0031 -0.06396,0.0069 -0.09472,0.01605 -0.03076,0.0091 -0.05973,0.02331 -0.08817,0.03816 -0.0048,0.0025 -0.0095,0.0051 -0.01421,0.0077 -0.0047,0.0026 -0.0093,0.0053 -0.01384,0.0081 -0.0045,0.0027 -0.009,0.0055 -0.01346,0.0084 -0.0044,0.0029 -0.0088,0.0058 -0.01307,0.0087 -0.0057,0.0039 -0.01132,0.008 -0.01681,0.01209 -0.0055,0.0041 -0.01086,0.0083 -0.0161,0.01252 -0.0079,0.0064 -0.01554,0.0129 -0.02285,0.01946 -0.02426,0.02177 -0.04512,0.04409 -0.06302,0.06535 -0.0198,0.02353 -0.03694,0.04689 -0.05188,0.06896 -0.01666,0.02463 -0.03142,0.04887 -0.04463,0.07198 -0.01472,0.02576 -0.02809,0.05113 -0.04042,0.07566 -0.0144,0.02867 -0.02778,0.05702 -0.04037,0.08469 -0.01466,0.03223 -0.02857,0.0642 -0.04193,0.09568 -0.01548,0.03649 -0.03045,0.07279 -0.04509,0.108776 -0.01545,0.03799 -0.03064,0.07585 -0.04575,0.113615 -0.0038,0.0096 -0.0071,0.01817 -0.0098,0.02527 -0.0048,0.01277 -0.0096,0.02553 -0.01381,0.03692 -0.0078,0.02089 -0.01524,0.04078 -0.02276,0.06024 -0.0076,0.01968 -0.01506,0.03844 -0.02261,0.05651 -0.0056,0.01329 -0.01092,0.02562 -0.01625,0.03717 -0.004,0.0086 -0.0075,0.01591 -0.01085,0.02235 -0.0025,0.0048 -0.0043,0.008 -0.0055,0.01012 -0.001,0.0017 -6.43e-4,9.39e-4 9.5e-4,-0.0013 0.0011,-0.0015 0.0057,-0.008 0.01365,-0.01642 0.0044,-0.0046 0.0063,-0.0064 0.0054,-0.0056 0.0046,-0.0044 0.0069,-0.006 0.007,-0.0061 1.22e-4,-8.6e-5 -0.0017,0.0012 -0.0055,0.0033 -0.0046,0.0025 -0.01083,0.0057 -0.01941,0.0096 -0.0098,0.0044 -0.02116,0.0091 -0.03463,0.01431 -0.01657,0.0064 -0.03425,0.01277 -0.05454,0.01993 -0.03075,0.01085 -0.07101,0.02468 -0.108945,0.0389 -0.02542,0.0095 -0.05297,0.0204 -0.08139,0.03291 -0.0236,0.0104 -0.04881,0.02236 -0.07469,0.03632 -0.02277,0.01229 -0.04691,0.02657 -0.07142,0.04331 -0.02347,0.01605 -0.04805,0.03488 -0.07232,0.05706 -0.0065,0.0059 -0.01295,0.01209 -0.0194,0.01854 -0.01382,0.01382 -0.02668,0.02858 -0.03862,0.04406 -0.0034,0.0044 -0.0066,0.0087 -0.0096,0.01286 -0.0042,0.0058 -0.0081,0.01141 -0.01168,0.01688 -0.01557,0.02346 -0.02786,0.04575 -0.03755,0.06489 -0.01344,0.02659 -0.02432,0.05189 -0.03333,0.07452 -0.01028,0.02587 -0.01912,0.05084 -0.02691,0.07431 -0.009,0.02711 -0.01705,0.05361 -0.02441,0.07909 -0.0094,0.03262 -0.01803,0.0647 -0.02608,0.09577 -0.01141,0.04408 -0.02215,0.08792 -0.0324,0.129725 -0.009,0.03668 -0.01756,0.07166 -0.02641,0.10633 -0.0063,0.02465 -0.01253,0.04827 -0.01897,0.07121 -0.0051,0.01821 -0.01015,0.03526 -0.01532,0.05145 -0.0047,0.01456 -0.009,0.02712 -0.01328,0.03827 -0.0038,0.0098 -0.0065,0.01583 -0.0083,0.01956 -0.0054,0.0077 -0.0065,0.0091 -0.0077,0.01062 -0.0056,0.0072 -0.0127,0.01558 -0.02186,0.02545 -0.01117,0.01202 -0.02388,0.02464 -0.03836,0.03819 -0.01558,0.01456 -0.03228,0.02931 -0.0502,0.04451 -0.02098,0.01778 -0.04293,0.03558 -0.06591,0.05367 -0.02846,0.02239 -0.05783,0.04469 -0.08823,0.06732 -0.05417,0.04031 -0.108842,0.0796 -0.166799,0.121517 -0.0295,0.02134 -0.05988,0.04339 -0.09034,0.06592 -0.02354,0.01742 -0.04773,0.03556 -0.07209,0.05441 -0.0209,0.01618 -0.04268,0.03345 -0.06471,0.05182 -0.01912,0.01596 -0.03987,0.03392 -0.06095,0.05383 -0.0064,0.0061 -0.01342,0.01283 -0.02076,0.02024 -0.01984,0.0202 -0.03519,0.03909 -0.04744,0.05564 -0.01377,0.01861 -0.02528,0.03646 -0.03491,0.05257 -0.01174,0.01965 -0.02179,0.03853 -0.03045,0.0559 -0.01075,0.02159 -0.02016,0.04244 -0.02847,0.06194 -0.01032,0.02424 -0.01956,0.04779 -0.02792,0.07005 -0.01137,0.03028 -0.02177,0.05994 -0.0313,0.08756 -0.01155,0.03347 -0.01381,0.04038 -0.02536,0.07385 -0.0059,0.01693 -0.01135,0.03238 -0.01682,0.04707 -0.0042,0.01136 -0.008,0.02112 -0.01171,0.02986 -0.0027,0.0064 -0.0048,0.01106 -0.0065,0.01454 -6.08e-4,0.0013 -0.0015,0.003 -0.0026,0.0051 -0.0016,0.0031 -0.0033,0.0061 -0.0051,0.0091 -7.84e-4,0.0013 -0.0016,0.0027 -0.0024,0.004 -8.3e-4,0.0013 -0.0017,0.0027 -0.0026,0.0041 -8.78e-4,0.0014 -0.0018,0.0027 -0.0027,0.0041 -0.0012,0.0018 -0.0025,0.0037 -0.0039,0.0056 -0.002,0.0028 -0.0041,0.0057 -0.0063,0.0086 -0.0082,0.01073 -0.01787,0.02195 -0.02919,0.03372 -0.01262,0.01312 -0.02695,0.02657 -0.04323,0.04062 -0.01804,0.01556 -0.0378,0.03129 -0.05961,0.04773 -0.0257,0.01937 -0.0529,0.03872 -0.08266,0.05951 -0.03491,0.0244 -0.07729,0.05347 -0.116818,0.08181 -0.02947,0.02113 -0.06044,0.04401 -0.0916,0.06875 -0.0272,0.0216 -0.05522,0.04515 -0.08306,0.0709 -0.02615,0.02419 -0.05259,0.05073 -0.07826,0.0799 -0.01544,0.01755 -0.03066,0.03612 -0.04539,0.05576 -0.01773,0.02363 -0.03447,0.04948 -0.04938,0.07751 -0.01305,0.0245 -0.02439,0.0501 -0.03381,0.07648 -0.0093,0.02592 -0.01639,0.05179 -0.0217,0.0771 -0.0055,0.02639 -0.009,0.05161 -0.01115,0.07484 -0.0024,0.02616 -0.0032,0.05036 -0.0035,0.07062 -3.91e-4,0.02874 7.3e-5,0.05106 -9.5e-5,0.06697 -1.21e-4,0.01144 -4.69e-4,0.01852 -8.95e-4,0.02336 -3.36e-4,0.0038 -6.86e-4,0.0054 -5.68e-4,0.0049 9.5e-5,-4.57e-4 4.72e-4,-0.0021 0.0014,-0.0046 6.93e-4,-0.0019 0.0016,-0.004 0.0026,-0.0061 -0.01032,0.02064 -0.02223,0.04165 -0.03572,0.06314 -0.0144,0.02294 -0.03034,0.04604 -0.04776,0.06944 -0.01909,0.02565 -0.03966,0.05128 -0.06161,0.0771 -0.02519,0.02963 -0.05186,0.05911 -0.07989,0.08878 -0.03526,0.03732 -0.07217,0.07441 -0.110689,0.112123 -0.03334,0.03264 -0.06727,0.06514 -0.102405,0.09877 -0.02727,0.02611 -0.05552,0.05315 -0.08371,0.0806 -0.01555,0.01516 -0.03145,0.03077 -0.04745,0.0468 -0.02317,0.02346 -0.04192,0.04626 -0.05788,0.06816 -0.01717,0.02356 -0.03159,0.04674 -0.04377,0.06831 -0.01366,0.02421 -0.02518,0.04758 -0.03498,0.06898 -0.01125,0.02457 -0.02097,0.04816 -0.02936,0.06937 -0.0128,0.03236 -0.02347,0.06141 -0.03319,0.08679 -0.0074,0.01923 -0.01379,0.03544 -0.02017,0.05024 -0.0053,0.01228 -0.01,0.02228 -0.01437,0.03069 -0.0039,0.0076 -0.0071,0.0129 -0.0096,0.01661 0.0012,-0.0018 0.0028,-0.004 0.0044,-0.006 0.0021,-0.0025 0.0032,-0.0035 0.0029,-0.0032 -4.76e-4,4.4e-4 -0.0032,0.0028 -0.0083,0.0067 -0.0074,0.0056 -0.01507,0.01095 -0.03008,0.02151 -0.0109,0.0077 -0.02651,0.01869 -0.04277,0.0313 -0.01437,0.01115 -0.03144,0.0252 -0.04915,0.0422 -0.01588,0.01524 -0.03286,0.03342 -0.04935,0.05481 -0.01488,0.01928 -0.02904,0.04081 -0.0416,0.06453 -0.01142,0.02155 -0.02103,0.04405 -0.0287,0.06709 -0.0094,0.02817 -0.01575,0.05524 -0.02013,0.08003 -0.0048,0.02715 -0.0074,0.0525 -0.0088,0.07486 -0.0016,0.02532 -0.0019,0.04876 -0.0018,0.06873 1.55e-4,0.02575 0.0011,0.05458 0.0016,0.07179 4.24e-4,0.01739 5.52e-4,0.03016 2.68e-4,0.04129 -2.31e-4,0.009 -7.03e-4,0.01502 -0.0012,0.01898 -3.94e-4,0.0033 -7.3e-4,0.0044 -4.6e-4,0.0033 0.002,-0.0063 0.0027,-0.0081 0.0034,-0.0099 0.0014,-0.0036 0.0028,-0.0067 0.0042,-0.0094 0.0033,-0.0065 0.0061,-0.01054 0.0073,-0.01216 0.0012,-0.0016 0.0013,-0.0015 -6.26e-4,4.9e-4 -0.0021,0.0022 -0.0056,0.0056 -0.01119,0.01032 -0.0067,0.0057 -0.01496,0.01227 -0.02542,0.02006 -0.0134,0.01 -0.02804,0.02027 -0.04567,0.03251 -0.01906,0.01322 -0.04331,0.02986 -0.06679,0.04682 -0.01785,0.0129 -0.03745,0.02754 -0.05755,0.04388 -0.01707,0.01389 -0.03546,0.02978 -0.05408,0.04783 -0.01625,0.01576 -0.03344,0.03391 -0.05037,0.05466 -0.01636,0.02006 -0.03308,0.04328 -0.04846,0.06985 -0.01037,0.01791 -0.02015,0.03736 -0.02877,0.05831 -0.0033,0.0081 -0.0064,0.01631 -0.0094,0.0247 -0.0023,0.0066 -0.0046,0.01358 -0.0052,0.0154 -0.01058,0.03187 -0.02088,0.06354 -0.0306,0.09334 -0.0115,0.03525 -0.0222,0.06797 -0.03322,0.100249 -0.01019,0.02983 -0.02023,0.05804 -0.03056,0.08516 -0.009,0.0237 -0.01823,0.04652 -0.02773,0.06858 -0.0099,0.02303 -0.02026,0.04551 -0.03102,0.06746 -0.0018,0.0037 -0.0036,0.0074 -0.0055,0.01102 -0.0052,0.01048 -0.0091,0.01957 -0.0117,0.02627 -0.0095,0.02437 -0.01409,0.04417 -0.01585,0.05191 -0.0048,0.02159 -0.0071,0.03908 -0.0083,0.04853 -0.0026,0.02203 -0.004,0.04137 -0.0048,0.05578 -0.0012,0.02171 -0.0019,0.04205 -0.0023,0.06027 -5.57e-4,0.02381 -7.7e-4,0.04683 -8.3e-4,0.06858 -8e-5,0.03166 1.69e-4,0.06264 5.61e-4,0.09233 5.77e-4,0.04326 0.0015,0.08582 0.0025,0.126814 0.0015,0.06073 0.0035,0.121182 0.0053,0.178652 -0.208193,-6.35389 0.210741,6.432281 0.0025,0.07843 4.42e-4,0.01429 8.26e-4,0.02717 0.0011,0.03987 1.95e-4,0.0086 2.95e-4,0.0137 3.02e-4,0.01829 a 0.29688073,0.29688073 90 0 0 0.59376,-8.56e-4 c -1.7e-5,-0.0118 -2.72e-4,-0.02292 -4.62e-4,-0.03127 -3.64e-4,-0.01525 -8.04e-4,-0.02991 -0.0013,-0.04446 -4.11e-4,-0.01316 -0.0022,-0.06639 -0.0026,-0.07948 -0.0019,-0.0572 -0.0037,-0.115825 -0.0052,-0.174216 -10e-4,-0.03947 -0.0019,-0.07952 -0.0024,-0.11964 -3.64e-4,-0.0276 -5.8e-4,-0.05531 -5.1e-4,-0.08289 5.2e-5,-0.01905 2.37e-4,-0.03777 6.66e-4,-0.05615 3.44e-4,-0.01447 8.05e-4,-0.02766 0.0015,-0.04 5.51e-4,-0.0094 0.001,-0.01486 0.0014,-0.01836 1.79e-4,-0.0014 1.8e-5,0.0015 -0.0019,0.01 -6.91e-4,0.0031 -0.0037,0.01676 -0.01053,0.03427 -0.0025,0.0062 -0.0056,0.01386 -0.01013,0.02284 0.0025,-0.005 0.005,-0.01007 0.0075,-0.01524 0.01504,-0.03069 0.02944,-0.06199 0.04317,-0.09388 0.01316,-0.03055 0.02556,-0.06131 0.03731,-0.09219 0.0134,-0.03519 0.02581,-0.07015 0.03755,-0.104526 0.01251,-0.03663 0.02438,-0.07294 0.03582,-0.108017 0.0099,-0.03045 0.01966,-0.06036 0.02949,-0.08997 0.0015,-0.0046 0.0027,-0.0082 0.0034,-0.01014 -0.0014,0.004 -0.0023,0.0063 -0.0032,0.0085 -0.0023,0.0056 -0.0046,0.01007 -0.0066,0.01344 -0.0029,0.0049 -0.0048,0.0074 -0.0052,0.0078 -3.47e-4,4.24e-4 7.59e-4,-9.47e-4 0.0036,-0.0037 0.0034,-0.0033 0.0083,-0.0077 0.01538,-0.01344 0.0084,-0.0068 0.01825,-0.01429 0.03059,-0.02321 0.01748,-0.01263 0.03463,-0.02437 0.05759,-0.0403 0.0183,-0.0127 0.03989,-0.02778 0.06187,-0.04416 0.01744,-0.013 0.03679,-0.02802 0.05668,-0.04503 0.01638,-0.01401 0.0342,-0.03029 0.05224,-0.04895 0.01614,-0.01672 0.03341,-0.03632 0.05024,-0.05898 0.01597,-0.0215 0.0322,-0.04663 0.04667,-0.07546 0.0059,-0.01177 0.01156,-0.02422 0.01678,-0.03732 0.0026,-0.0065 0.005,-0.01308 0.0074,-0.01987 0.0055,-0.01603 0.0098,-0.03077 0.0133,-0.04474 0.007,-0.02784 0.01146,-0.05426 0.01434,-0.07844 0.0032,-0.02682 0.0046,-0.05184 0.0051,-0.07397 6.68e-4,-0.02622 2.41e-4,-0.05077 -2.51e-4,-0.07096 -6.5e-4,-0.02663 -0.0013,-0.04234 -0.0014,-0.06083 -6.9e-5,-0.01186 1.5e-4,-0.0205 5.84e-4,-0.02727 3.73e-4,-0.0058 8.24e-4,-0.0088 9.85e-4,-0.0097 1.01e-4,-5.73e-4 -10e-5,9.5e-4 -0.0013,0.0046 -0.0026,0.0078 -0.0059,0.01559 -0.0099,0.02309 -0.0043,0.0081 -0.0088,0.01482 -0.01295,0.0202 -0.0044,0.0057 -0.008,0.0094 -0.0096,0.01093 -0.0016,0.0015 -0.0015,0.0013 0.0019,-0.0014 0.0043,-0.0033 0.0099,-0.0074 0.02055,-0.01488 0.01063,-0.0075 0.029,-0.02023 0.04682,-0.03373 0.01566,-0.01186 0.03396,-0.02652 0.05286,-0.044 0.01694,-0.01565 0.03466,-0.03382 0.05192,-0.05472 0.01185,-0.01434 0.02322,-0.02966 0.03384,-0.04585 0.01542,-0.02335 0.02887,-0.04697 0.04036,-0.06906 0.01267,-0.02436 0.02349,-0.04791 0.03285,-0.06961 0.01112,-0.0258 0.02089,-0.0507 0.02939,-0.07288 0.01161,-0.03031 0.02157,-0.05734 0.03082,-0.08071 0.0062,-0.01566 0.01173,-0.02889 0.01711,-0.04064 0.0047,-0.01016 0.0087,-0.01805 0.0122,-0.0243 0.0031,-0.0055 0.0053,-0.0088 0.0066,-0.01053 0.0011,-0.0015 9.86e-4,-0.0011 -5.86e-4,4.57e-4 0.01222,-0.01223 0.02598,-0.02577 0.04035,-0.03977 0.026,-0.02532 0.05237,-0.05056 0.08001,-0.07703 0.03478,-0.03329 0.07108,-0.06805 0.107174,-0.10339 0.04189,-0.04101 0.08463,-0.08389 0.126925,-0.128651 0.03367,-0.03564 0.06746,-0.07291 0.100648,-0.111943 0.02891,-0.034 0.05765,-0.0697 0.08557,-0.107205 0.02545,-0.0342 0.05048,-0.07027 0.07434,-0.108292 0.02235,-0.03562 0.04393,-0.07335 0.06386,-0.113202 0.0097,-0.01935 0.01814,-0.03922 0.02538,-0.05945 0.009,-0.02502 0.01573,-0.04983 0.02075,-0.07389 0.0055,-0.02646 0.0088,-0.05155 0.01084,-0.07426 0.0023,-0.02587 0.0029,-0.04966 0.0031,-0.06913 2.97e-4,-0.02814 -1.35e-4,-0.0499 7.3e-5,-0.06525 1.52e-4,-0.01131 5.4e-4,-0.01872 0.001,-0.02398 4.1e-4,-0.0044 8.42e-4,-0.0068 9.91e-4,-0.0075 0.0036,-0.0032 0.0089,-0.0098 0.01499,-0.01669 0.01012,-0.0115 0.02191,-0.02351 0.03562,-0.03619 0.01464,-0.01353 0.03092,-0.02735 0.04915,-0.04182 0.02097,-0.01665 0.04355,-0.03342 0.06832,-0.05118 0.03582,-0.02568 0.06976,-0.04887 0.110994,-0.07769 0.03165,-0.02212 0.06565,-0.04622 0.09987,-0.072 0.02928,-0.02207 0.05973,-0.04612 0.09017,-0.07239 0.02755,-0.02378 0.05566,-0.04985 0.08323,-0.07851 0.02486,-0.02584 0.04955,-0.05406 0.07308,-0.08487 0.0064,-0.0083 0.01266,-0.01687 0.01886,-0.02561 0.0041,-0.0058 0.0082,-0.01171 0.01223,-0.0177 0.003,-0.0045 0.006,-0.009 0.009,-0.01361 0.003,-0.0046 0.0059,-0.0092 0.0088,-0.0139 0.0029,-0.0047 0.0057,-0.0094 0.0086,-0.01418 0.0067,-0.01128 0.01305,-0.02272 0.01915,-0.03431 0.0036,-0.0069 0.0075,-0.01438 0.01131,-0.02233 0.0078,-0.016 0.0144,-0.03109 0.02002,-0.0445 0.0077,-0.01838 0.01447,-0.03593 0.02044,-0.05193 0.0078,-0.02081 0.01487,-0.041 0.02138,-0.05972 0.0069,-0.01989 0.01887,-0.05513 0.02575,-0.07496 0.0089,-0.0259 0.01731,-0.04969 0.02586,-0.07247 0.0063,-0.01667 0.01227,-0.03187 0.01829,-0.04601 0.0049,-0.01141 0.0094,-0.02125 0.01367,-0.02989 0.0035,-0.007 0.0063,-0.01217 0.0086,-0.01605 0.0018,-0.0031 0.0028,-0.0044 0.0025,-0.0039 -3.34e-4,4.51e-4 -0.0024,0.0033 -0.0071,0.0081 7.15e-4,-7.17e-4 0.003,-0.0029 0.006,-0.0058 0.0092,-0.0087 0.02015,-0.01829 0.03334,-0.02931 0.01476,-0.01231 0.03061,-0.02492 0.04775,-0.03819 0.01982,-0.01534 0.04036,-0.03076 0.0618,-0.04663 0.02777,-0.02054 0.05603,-0.04106 0.08523,-0.06218 0.05574,-0.04032 0.114942,-0.08286 0.173282,-0.126275 0.03327,-0.02476 0.06707,-0.0504 0.100899,-0.07701 0.0273,-0.02149 0.05503,-0.04392 0.08275,-0.06743 0.0236,-0.02002 0.04769,-0.04121 0.07175,-0.06371 0.02212,-0.02069 0.04503,-0.04322 0.0678,-0.06772 0.0184,-0.01981 0.03772,-0.04198 0.05675,-0.0666 0.0043,-0.0055 0.0085,-0.01119 0.01279,-0.01702 0.0031,-0.0043 0.0062,-0.0086 0.0094,-0.01314 0.01742,-0.02498 0.03327,-0.05104 0.04687,-0.07829 0.01298,-0.026 0.02318,-0.05061 0.03122,-0.07149 0.0096,-0.02502 0.01772,-0.04889 0.02473,-0.07079 0.0079,-0.02477 0.01498,-0.04884 0.02141,-0.07174 0.0081,-0.02893 0.01558,-0.0573 0.02256,-0.08459 0.0097,-0.03808 0.01902,-0.07605 0.02784,-0.112023 0.01041,-0.04246 0.02024,-0.08254 0.03051,-0.122224 0.0072,-0.02774 0.01432,-0.05423 0.02173,-0.07989 0.0058,-0.02007 0.01155,-0.03889 0.01748,-0.05677 0.0052,-0.01562 0.01016,-0.02947 0.01514,-0.042 0.0045,-0.01127 0.0082,-0.01954 0.01136,-0.02579 0.0022,-0.0043 0.0032,-0.0058 0.0024,-0.0045 -0.0042,0.0064 -0.0091,0.01233 -0.01481,0.0175 6.08e-4,-5.56e-4 0.0027,-0.0024 0.0069,-0.0052 0.0044,-0.003 0.01032,-0.0066 0.01825,-0.01093 0.009,-0.0048 0.01953,-0.01 0.03206,-0.01548 0.01511,-0.0066 0.03176,-0.0133 0.05066,-0.02039 0.03067,-0.0115 0.06019,-0.02157 0.09806,-0.03494 0.02188,-0.0077 0.04597,-0.01636 0.07073,-0.02592 0.02026,-0.0078 0.0422,-0.01673 0.06495,-0.02699 0.01964,-0.0089 0.04102,-0.01924 0.06318,-0.03152 0.01887,-0.01047 0.03938,-0.02291 0.06045,-0.0378 0.01981,-0.01402 0.04122,-0.03097 0.06252,-0.0515 0.0021,-0.0021 0.0081,-0.0078 0.01485,-0.01499 0.01666,-0.01773 0.02913,-0.03428 0.03726,-0.04568 0.01068,-0.01501 0.0192,-0.02864 0.02582,-0.03976 0.0087,-0.01471 0.01618,-0.02846 0.02246,-0.04058 0.0085,-0.01648 0.01607,-0.0322 0.02275,-0.04667 0.0091,-0.01968 0.01732,-0.03875 0.02486,-0.05676 0.01029,-0.0246 0.01983,-0.04867 0.02871,-0.07167 0.0088,-0.02288 0.0173,-0.04547 0.02524,-0.06676 0.0046,-0.01246 0.0086,-0.02323 0.01281,-0.03424 0.0024,-0.0063 0.0042,-0.01107 0.0059,-0.0153 0.0148,-0.037 0.02947,-0.07357 0.04424,-0.109871 0.01401,-0.03442 0.02777,-0.06778 0.04167,-0.100554 0.01202,-0.02831 0.02383,-0.05543 0.0358,-0.08173 0.0103,-0.02262 0.02036,-0.04388 0.03052,-0.0641 0.0087,-0.01732 0.01707,-0.03308 0.02537,-0.0476 0.0075,-0.01308 0.01434,-0.02418 0.02083,-0.03378 0.0058,-0.0086 0.01059,-0.01485 0.01442,-0.01941 0.0033,-0.0039 0.0053,-0.0057 0.0053,-0.0058 a 0.28306062,0.28306062 90 0 0 0.07485,-0.56115 z"
       id="path-1"
       inkscape:path-effect="#path-effect19;#path-effect20"
       inkscape:original-d="m 32.36,10.568954 c -0.226772,-0.04992 -0.314952,0.149085 -0.504698,0.62345 -0.02616,0.0654 -0.09646,0.274585 -0.14844,0.326568 -0.110363,0.110364 -0.399697,0.132505 -0.534385,0.267193 -0.116981,0.116981 -0.17592,0.619031 -0.267193,0.801578 -0.106962,0.213924 -0.628738,0.509985 -0.801578,0.682826 -0.09139,0.09139 -0.148092,0.355559 -0.207817,0.475009 -0.136147,0.272295 -0.505272,0.386711 -0.682825,0.623449 -0.108667,0.144889 -0.02238,0.282263 -0.08906,0.415633 -0.136051,0.272102 -0.424136,0.5132 -0.62345,0.712514 -0.09986,0.09986 -0.124743,0.291023 -0.207816,0.415633 -0.06055,0.09082 -0.176094,0.112649 -0.207817,0.207817 -0.03604,0.108109 0.0073,0.245179 -0.02969,0.356256 -0.05146,0.154378 -0.334486,0.231567 -0.385945,0.385945 -0.05924,0.177722 -0.09761,0.313981 -0.178128,0.47501 -0.02798,0.05595 0,0.626753 0,0.712513"
       style="fill:#cecdca;fill-opacity:1;fill-rule:nonzero;stroke:none;stroke-width:1.257"
       transform="matrix(0.81101299,0,0,0.71946791,-5.9199993,23.988783)" />
  </g>
</svg>
